solid 
 facet normal -1.000000e+00  0.000000e+00  0.000000e+00
   outer loop
     vertex  0.000000e+00  3.207149e+01  0.000000e+00
     vertex  0.000000e+00  0.000000e+00  0.000000e+00
     vertex  0.000000e+00  0.000000e+00  3.207149e+01
   endloop
 endfacet
 facet normal -1.000000e+00  0.000000e+00  0.000000e+00
   outer loop
     vertex  0.000000e+00  3.207149e+01  0.000000e+00
     vertex  0.000000e+00  0.000000e+00  3.207149e+01
     vertex  0.000000e+00  3.207149e+01  3.207149e+01
   endloop
 endfacet
 facet normal -7.453560e-01  6.666667e-01  0.000000e+00
   outer loop
     vertex  0.000000e+00  3.207149e+01  0.000000e+00
     vertex  0.000000e+00  3.207149e+01  3.207149e+01
     vertex  1.603575e+01  5.000000e+01  3.207149e+01
   endloop
 endfacet
 facet normal -7.453560e-01  6.666667e-01  0.000000e+00
   outer loop
     vertex  1.603575e+01  5.000000e+01  0.000000e+00
     vertex  0.000000e+00  3.207149e+01  0.000000e+00
     vertex  1.603575e+01  5.000000e+01  3.207149e+01
   endloop
 endfacet
 facet normal  7.453560e-01  6.666667e-01 -0.000000e+00
   outer loop
     vertex  1.603575e+01  5.000000e+01  0.000000e+00
     vertex  1.603575e+01  5.000000e+01  3.207149e+01
     vertex  3.207149e+01  3.207149e+01  3.207149e+01
   endloop
 endfacet
 facet normal  7.453560e-01  6.666667e-01 -0.000000e+00
   outer loop
     vertex  3.207149e+01  3.207149e+01  0.000000e+00
     vertex  1.603575e+01  5.000000e+01  0.000000e+00
     vertex  3.207149e+01  3.207149e+01  3.207149e+01
   endloop
 endfacet
 facet normal  1.000000e+00  0.000000e+00  0.000000e+00
   outer loop
     vertex  3.207149e+01  0.000000e+00  0.000000e+00
     vertex  3.207149e+01  3.207149e+01  0.000000e+00
     vertex  3.207149e+01  3.207149e+01  3.207149e+01
   endloop
 endfacet
 facet normal  1.000000e+00  0.000000e+00  0.000000e+00
   outer loop
     vertex  3.207149e+01  0.000000e+00  0.000000e+00
     vertex  3.207149e+01  3.207149e+01  3.207149e+01
     vertex  3.207149e+01  0.000000e+00  3.207149e+01
   endloop
 endfacet
 facet normal  0.000000e+00 -1.000000e+00  0.000000e+00
   outer loop
     vertex  0.000000e+00  0.000000e+00  0.000000e+00
     vertex  3.207149e+01  0.000000e+00  0.000000e+00
     vertex  3.207149e+01  0.000000e+00  3.207149e+01
   endloop
 endfacet
 facet normal  0.000000e+00 -1.000000e+00  0.000000e+00
   outer loop
     vertex  0.000000e+00  0.000000e+00  0.000000e+00
     vertex  3.207149e+01  0.000000e+00  3.207149e+01
     vertex  0.000000e+00  0.000000e+00  3.207149e+01
   endloop
 endfacet
 facet normal  0.000000e+00  0.000000e+00 -1.000000e+00
   outer loop
     vertex  0.000000e+00  3.207149e+01  0.000000e+00
     vertex  3.207149e+01  3.207149e+01  0.000000e+00
     vertex  3.207149e+01  0.000000e+00  0.000000e+00
   endloop
 endfacet
 facet normal  0.000000e+00  0.000000e+00 -1.000000e+00
   outer loop
     vertex  0.000000e+00  3.207149e+01  0.000000e+00
     vertex  3.207149e+01  0.000000e+00  0.000000e+00
     vertex  0.000000e+00  0.000000e+00  0.000000e+00
   endloop
 endfacet
 facet normal  0.000000e+00 -0.000000e+00 -1.000000e+00
   outer loop
     vertex  1.603575e+01  5.000000e+01  0.000000e+00
     vertex  3.207149e+01  3.207149e+01  0.000000e+00
     vertex  0.000000e+00  3.207149e+01  0.000000e+00
   endloop
 endfacet
 facet normal -0.000000e+00  0.000000e+00  1.000000e+00
   outer loop
     vertex  0.000000e+00  3.207149e+01  3.207149e+01
     vertex  3.207149e+01  0.000000e+00  3.207149e+01
     vertex  3.207149e+01  3.207149e+01  3.207149e+01
   endloop
 endfacet
 facet normal  0.000000e+00  0.000000e+00  1.000000e+00
   outer loop
     vertex  0.000000e+00  3.207149e+01  3.207149e+01
     vertex  0.000000e+00  0.000000e+00  3.207149e+01
     vertex  3.207149e+01  0.000000e+00  3.207149e+01
   endloop
 endfacet
 facet normal  0.000000e+00  0.000000e+00  1.000000e+00
   outer loop
     vertex  1.603575e+01  5.000000e+01  3.207149e+01
     vertex  0.000000e+00  3.207149e+01  3.207149e+01
     vertex  3.207149e+01  3.207149e+01  3.207149e+01
   endloop
 endfacet
endsolid
